<?xml version="1.0" encoding="UTF-8"?>
<!DOCTYPE svg PUBLIC "-//W3C//DTD SVG 1.0//EN" "http://www.w3.org/TR/2001/REC-SVG-20010904/DTD/svg10.dtd">
<!-- Creator: CorelDRAW 2020 (64 Bit) -->
<svg xmlns="http://www.w3.org/2000/svg" xml:space="preserve" width="85.8566mm" height="78.8329mm" version="1.0" style="shape-rendering:geometricPrecision; text-rendering:geometricPrecision; image-rendering:optimizeQuality; fill-rule:evenodd; clip-rule:evenodd"
viewBox="0 0 3737 3431"
 xmlns:xlink="http://www.w3.org/1999/xlink"
 xmlns:xodm="http://www.corel.com/coreldraw/odm/2003">
 <defs>
  <style type="text/css">
   <![CDATA[
    .str0 {stroke:#CCCCCC;stroke-width:3;stroke-miterlimit:22.9256}
    .fil7 {fill:none}
    .fil17 {fill:none;fill-rule:nonzero}
    .fil10 {fill:#55AF3B}
    .fil4 {fill:#101A25}
    .fil0 {fill:#3A4C51}
    .fil8 {fill:#DCFF1B}
    .fil5 {fill:#F3FF25}
    .fil3 {fill:#F9FEB6}
    .fil6 {fill:#FBFCE7}
    .fil2 {fill:#FBFF78}
    .fil13 {fill:#FDFFEB}
    .fil12 {fill:#FEF227}
    .fil9 {fill:#FEFEF3}
    .fil1 {fill:#FFEE22}
    .fil16 {fill:#F9FEB6;fill-rule:nonzero}
    .fil14 {fill:white;fill-rule:nonzero}
    .fil11 {fill:url(#id17)}
    .fil15 {fill:url(#id18);fill-rule:nonzero}
   ]]>
  </style>
    <clipPath id="id0">
     <rect x="2803" y="3204" width="934" height="227"/>
    </clipPath>
     <clipPath id="id1">
      <rect x="679" y="429" width="2290" height="1988"/>
     </clipPath>
     <clipPath id="id2">
      <rect x="724" y="470" width="2196" height="1905"/>
     </clipPath>
     <clipPath id="id3">
      <path d="M1263 232c0,0 286,31 439,245 0,0 53,-14 71,-16 18,-2 -5,-22 -5,-22 0,0 -69,-233 -481,-306 0,0 -13,-3 -18,7 -5,10 -31,65 -26,80 4,15 20,12 20,12z"/>
     </clipPath>
     <clipPath id="id4">
      <path d="M1857 405c0,0 289,-555 994,-227 0,0 16,15 -2,20 -18,5 -460,-61 -918,190 0,0 -60,35 -67,44 -7,10 -10,-10 -10,-10l4 -18z"/>
     </clipPath>
     <clipPath id="id5">
      <path d="M1936 477c0,0 141,31 240,55 98,25 270,17 440,-84 170,-101 224,-229 224,-229 0,0 -40,10 -47,9 -6,-1 -274,27 -400,63 -127,36 -189,43 -271,81 -82,38 -199,102 -186,105z"/>
     </clipPath>
      <clipPath id="id6">
       <path d="M1970 484c22,5 52,12 86,19l444 0c38,-14 77,-32 116,-55 62,-37 109,-78 143,-114l0 -102c-77,8 -266,31 -366,60 -127,36 -189,43 -271,81 -50,23 -114,56 -152,79l0 33z"/>
      </clipPath>
      <clipPath id="id7">
       <path d="M1936 477c0,0 141,31 240,55 98,25 270,17 440,-84 170,-101 224,-229 224,-229 0,0 -40,10 -47,9 -6,-1 -274,27 -400,63 -127,36 -189,43 -271,81 -82,38 -199,102 -186,105z"/>
      </clipPath>
      <clipPath id="id8">
       <path d="M1936 477c0,0 141,31 240,55 98,25 270,17 440,-84 170,-101 224,-229 224,-229 0,0 -40,10 -47,9 -6,-1 -274,27 -400,63 -127,36 -189,43 -271,81 -82,38 -199,102 -186,105z"/>
      </clipPath>
      <clipPath id="id9">
       <path d="M1936 477c0,0 141,31 240,55 98,25 270,17 440,-84 170,-101 224,-229 224,-229 0,0 -40,10 -47,9 -6,-1 -274,27 -400,63 -127,36 -189,43 -271,81 -82,38 -199,102 -186,105z"/>
      </clipPath>
     <clipPath id="id10">
      <path d="M1776 553c-61,21 -326,189 -431,298 -115,119 -205,210 -228,246 -23,37 -55,74 -97,106 -41,32 -101,124 -101,124 0,0 -60,138 18,318 75,173 165,248 174,262l0 -438c-50,-16 -87,-64 -87,-119 0,-69 56,-126 126,-126 69,0 126,56 126,126 0,56 -36,103 -87,119l0 516c48,40 119,90 214,135l0 -450c-50,-16 -87,-64 -87,-119 0,-56 36,-103 87,-119l0 -339c-18,-360 309,-495 348,-518 13,-7 20,-15 24,-21zm-295 1600c81,31 176,56 286,68l0 -493c-50,-16 -87,-64 -87,-119 0,-56 36,-103 87,-119l0 -840c-326,123 -286,444 -286,444l0 339c50,16 87,64 87,119 0,56 -36,103 -87,119l0 482zm363 73c104,0 206,-23 302,-62l0 -496c-50,-16 -87,-64 -87,-119 0,-56 36,-103 87,-119l0 -201c-52,-15 -90,-63 -90,-121 0,-58 40,-108 94,-122 -38,-250 -228,-325 -305,-345l0 848c50,16 87,64 87,119 0,56 -36,103 -87,119l0 498zm379 -98c84,-43 162,-98 229,-157l0 -518c-50,-16 -87,-64 -87,-119 0,-69 56,-126 126,-126 69,0 126,56 126,126 0,56 -36,103 -87,119l0 444c89,-94 151,-191 171,-267 60,-226 48,-403 -71,-573 -114,-162 -334,-497 -771,-506 17,40 103,69 103,69 232,118 250,318 251,367 54,14 94,63 94,122 0,55 -35,101 -83,118l0 203c50,16 87,64 87,119 0,56 -36,103 -87,119l0 460zm268 -857c35,0 63,28 63,63 0,35 -28,63 -63,63 -35,0 -63,-28 -63,-63 0,-35 28,-63 63,-63zm-310 -227c35,0 63,28 63,63 0,35 -28,63 -63,63 -35,0 -63,-28 -63,-63 0,-35 28,-63 63,-63zm3 441c35,0 63,28 63,63 0,35 -28,63 -63,63 -35,0 -63,-28 -63,-63 0,-35 28,-63 63,-63zm-379 60c35,0 63,28 63,63 0,35 -28,63 -63,63 -35,0 -63,-28 -63,-63 0,-35 28,-63 63,-63zm-363 -58c35,0 63,28 63,63 0,35 -28,63 -63,63 -35,0 -63,-28 -63,-63 0,-35 28,-63 63,-63zm-291 -200c35,0 63,28 63,63 0,35 -28,63 -63,63 -35,0 -63,-28 -63,-63 0,-35 28,-63 63,-63z"/>
     </clipPath>
      <clipPath id="id11">
       <path d="M1776 553c-61,21 -326,189 -431,298 -115,119 -205,210 -228,246 -23,37 -55,74 -97,106 -41,32 -101,124 -101,124 0,0 -1,3 -3,8l0 250c6,19 13,39 22,59 75,173 165,248 174,262l0 -438c-50,-16 -87,-64 -87,-119 0,-69 56,-126 126,-126 69,0 126,56 126,126 0,56 -36,103 -87,119l0 516c48,40 119,90 214,135l0 -450c-50,-16 -87,-64 -87,-119 0,-56 36,-103 87,-119l0 -339c-18,-360 309,-495 348,-518 13,-7 20,-15 24,-21zm946 713l0 263c-6,33 -13,66 -23,101 -20,76 -81,173 -171,267l0 -444c50,-16 87,-64 87,-119 0,-69 -56,-126 -126,-126 -69,0 -126,56 -126,126 0,56 36,103 87,119l0 518c-67,59 -145,113 -229,157l0 -460c50,-16 87,-64 87,-119 0,-56 -36,-103 -87,-119l0 -203c49,-17 83,-64 83,-118 0,-59 -40,-108 -94,-122 -1,-49 -19,-249 -251,-367 0,0 -86,-29 -103,-69 437,9 657,344 771,506 48,68 78,137 94,210zm-1241 887c81,31 176,56 286,68l0 -493c-50,-16 -87,-64 -87,-119 0,-56 36,-103 87,-119l0 -840c-326,123 -286,444 -286,444l0 339c50,16 87,64 87,119 0,56 -36,103 -87,119l0 482zm363 73c104,0 206,-23 302,-62l0 -496c-50,-16 -87,-64 -87,-119 0,-56 36,-103 87,-119l0 -201c-52,-15 -90,-63 -90,-121 0,-58 40,-108 94,-122 -38,-250 -228,-325 -305,-345l0 848c50,16 87,64 87,119 0,56 -36,103 -87,119l0 498zm647 -955c35,0 63,28 63,63 0,35 -28,63 -63,63 -35,0 -63,-28 -63,-63 0,-35 28,-63 63,-63zm-310 -227c35,0 63,28 63,63 0,35 -28,63 -63,63 -35,0 -63,-28 -63,-63 0,-35 28,-63 63,-63zm3 441c35,0 63,28 63,63 0,35 -28,63 -63,63 -35,0 -63,-28 -63,-63 0,-35 28,-63 63,-63zm-379 60c35,0 63,28 63,63 0,35 -28,63 -63,63 -35,0 -63,-28 -63,-63 0,-35 28,-63 63,-63zm-363 -58c35,0 63,28 63,63 0,35 -28,63 -63,63 -35,0 -63,-28 -63,-63 0,-35 28,-63 63,-63zm-291 -200c35,0 63,28 63,63 0,35 -28,63 -63,63 -35,0 -63,-28 -63,-63 0,-35 28,-63 63,-63z"/>
      </clipPath>
      <clipPath id="id12">
       <path d="M1776 553c-61,21 -326,189 -431,298 -115,119 -205,210 -228,246 -23,37 -55,74 -97,106 -41,32 -101,124 -101,124 0,0 -60,138 18,318 75,173 165,248 174,262l0 -438c-50,-16 -87,-64 -87,-119 0,-69 56,-126 126,-126 69,0 126,56 126,126 0,56 -36,103 -87,119l0 516c48,40 119,90 214,135l0 -450c-50,-16 -87,-64 -87,-119 0,-56 36,-103 87,-119l0 -339c-18,-360 309,-495 348,-518 13,-7 20,-15 24,-21zm-295 1600c81,31 176,56 286,68l0 -493c-50,-16 -87,-64 -87,-119 0,-56 36,-103 87,-119l0 -840c-326,123 -286,444 -286,444l0 339c50,16 87,64 87,119 0,56 -36,103 -87,119l0 482zm363 73c104,0 206,-23 302,-62l0 -496c-50,-16 -87,-64 -87,-119 0,-56 36,-103 87,-119l0 -201c-52,-15 -90,-63 -90,-121 0,-58 40,-108 94,-122 -38,-250 -228,-325 -305,-345l0 848c50,16 87,64 87,119 0,56 -36,103 -87,119l0 498zm379 -98c84,-43 162,-98 229,-157l0 -518c-50,-16 -87,-64 -87,-119 0,-69 56,-126 126,-126 69,0 126,56 126,126 0,56 -36,103 -87,119l0 444c89,-94 151,-191 171,-267 60,-226 48,-403 -71,-573 -114,-162 -334,-497 -771,-506 17,40 103,69 103,69 232,118 250,318 251,367 54,14 94,63 94,122 0,55 -35,101 -83,118l0 203c50,16 87,64 87,119 0,56 -36,103 -87,119l0 460zm268 -857c35,0 63,28 63,63 0,35 -28,63 -63,63 -35,0 -63,-28 -63,-63 0,-35 28,-63 63,-63zm-310 -227c35,0 63,28 63,63 0,35 -28,63 -63,63 -35,0 -63,-28 -63,-63 0,-35 28,-63 63,-63zm3 441c35,0 63,28 63,63 0,35 -28,63 -63,63 -35,0 -63,-28 -63,-63 0,-35 28,-63 63,-63zm-379 60c35,0 63,28 63,63 0,35 -28,63 -63,63 -35,0 -63,-28 -63,-63 0,-35 28,-63 63,-63zm-363 -58c35,0 63,28 63,63 0,35 -28,63 -63,63 -35,0 -63,-28 -63,-63 0,-35 28,-63 63,-63zm-291 -200c35,0 63,28 63,63 0,35 -28,63 -63,63 -35,0 -63,-28 -63,-63 0,-35 28,-63 63,-63z"/>
      </clipPath>
      <clipPath id="id13">
       <path d="M1668 610c-105,64 -252,166 -323,240 -73,76 -137,140 -179,187l0 189c62,8 109,61 109,124 0,56 -36,103 -87,119l0 516c48,40 119,90 214,135l0 -450c-50,-16 -87,-64 -87,-119 0,-56 36,-103 87,-119l0 -339c-14,-275 174,-419 281,-482l-16 0zm270 0l208 0c251,106 396,324 482,446 120,170 131,348 71,573 -20,76 -81,173 -171,267l0 -444c50,-16 87,-64 87,-119 0,-69 -56,-126 -126,-126 -69,0 -126,56 -126,126 0,56 36,103 87,119l0 518c-67,59 -145,113 -229,157l0 -460c50,-16 87,-64 87,-119 0,-56 -36,-103 -87,-119l0 -203c49,-17 83,-64 83,-118 0,-59 -40,-108 -94,-122 -1,-49 -19,-249 -251,-367 0,0 -9,-3 -22,-8zm-772 801l0 -123c27,7 47,32 47,61 0,29 -20,54 -47,61zm314 741c81,31 176,56 286,68l0 -493c-50,-16 -87,-64 -87,-119 0,-56 36,-103 87,-119l0 -840c-326,123 -286,444 -286,444l0 339c50,16 87,64 87,119 0,56 -36,103 -87,119l0 482zm363 73c104,0 206,-23 302,-62l0 -496c-50,-16 -87,-64 -87,-119 0,-56 36,-103 87,-119l0 -201c-52,-15 -90,-63 -90,-121 0,-58 40,-108 94,-122 -38,-250 -228,-325 -305,-345l0 848c50,16 87,64 87,119 0,56 -36,103 -87,119l0 498zm647 -955c35,0 63,28 63,63 0,35 -28,63 -63,63 -35,0 -63,-28 -63,-63 0,-35 28,-63 63,-63zm-310 -227c35,0 63,28 63,63 0,35 -28,63 -63,63 -35,0 -63,-28 -63,-63 0,-35 28,-63 63,-63zm3 441c35,0 63,28 63,63 0,35 -28,63 -63,63 -35,0 -63,-28 -63,-63 0,-35 28,-63 63,-63zm-379 60c35,0 63,28 63,63 0,35 -28,63 -63,63 -35,0 -63,-28 -63,-63 0,-35 28,-63 63,-63zm-363 -58c35,0 63,28 63,63 0,35 -28,63 -63,63 -35,0 -63,-28 -63,-63 0,-35 28,-63 63,-63z"/>
      </clipPath>
      <clipPath id="id14">
       <path d="M1776 553c-61,21 -326,189 -431,298 -115,119 -205,210 -228,246 -23,37 -55,74 -97,106 -41,32 -101,124 -101,124 0,0 -60,138 18,318 75,173 165,248 174,262l0 -438c-50,-16 -87,-64 -87,-119 0,-69 56,-126 126,-126 69,0 126,56 126,126 0,56 -36,103 -87,119l0 516c48,40 119,90 214,135l0 -450c-50,-16 -87,-64 -87,-119 0,-56 36,-103 87,-119l0 -339c-18,-360 309,-495 348,-518 13,-7 20,-15 24,-21zm-295 1600c81,31 176,56 286,68l0 -493c-50,-16 -87,-64 -87,-119 0,-56 36,-103 87,-119l0 -840c-326,123 -286,444 -286,444l0 339c50,16 87,64 87,119 0,56 -36,103 -87,119l0 482zm363 73c104,0 206,-23 302,-62l0 -496c-50,-16 -87,-64 -87,-119 0,-56 36,-103 87,-119l0 -201c-52,-15 -90,-63 -90,-121 0,-58 40,-108 94,-122 -38,-250 -228,-325 -305,-345l0 848c50,16 87,64 87,119 0,56 -36,103 -87,119l0 498zm379 -98c84,-43 162,-98 229,-157l0 -518c-50,-16 -87,-64 -87,-119 0,-69 56,-126 126,-126 69,0 126,56 126,126 0,56 -36,103 -87,119l0 444c89,-94 151,-191 171,-267 60,-226 48,-403 -71,-573 -114,-162 -334,-497 -771,-506 17,40 103,69 103,69 232,118 250,318 251,367 54,14 94,63 94,122 0,55 -35,101 -83,118l0 203c50,16 87,64 87,119 0,56 -36,103 -87,119l0 460zm268 -857c35,0 63,28 63,63 0,35 -28,63 -63,63 -35,0 -63,-28 -63,-63 0,-35 28,-63 63,-63zm-310 -227c35,0 63,28 63,63 0,35 -28,63 -63,63 -35,0 -63,-28 -63,-63 0,-35 28,-63 63,-63zm3 441c35,0 63,28 63,63 0,35 -28,63 -63,63 -35,0 -63,-28 -63,-63 0,-35 28,-63 63,-63zm-379 60c35,0 63,28 63,63 0,35 -28,63 -63,63 -35,0 -63,-28 -63,-63 0,-35 28,-63 63,-63zm-363 -58c35,0 63,28 63,63 0,35 -28,63 -63,63 -35,0 -63,-28 -63,-63 0,-35 28,-63 63,-63zm-291 -200c35,0 63,28 63,63 0,35 -28,63 -63,63 -35,0 -63,-28 -63,-63 0,-35 28,-63 63,-63z"/>
      </clipPath>
      <clipPath id="id15">
       <path d="M1610 647c-96,62 -206,142 -265,203 -70,73 -131,135 -173,180l0 196c59,10 104,62 104,124 0,56 -36,103 -87,119l0 516c48,40 119,90 214,135l0 -450c-50,-16 -87,-64 -87,-119 0,-56 36,-103 87,-119l0 -339c-11,-231 119,-369 224,-445l-18 0zm233 0l22 0c87,28 248,110 283,338 -54,14 -94,63 -94,122 0,57 38,105 90,121l0 201c-50,16 -87,64 -87,119 0,56 36,103 87,119l0 496c-95,39 -197,63 -302,62l0 -498c50,-16 87,-64 87,-119 0,-56 -36,-103 -87,-119l0 -841zm166 0l212 0c205,114 330,300 406,409 120,170 131,348 71,573 -20,76 -81,173 -171,267l0 -444c50,-16 87,-64 87,-119 0,-69 -56,-126 -126,-126 -69,0 -126,56 -126,126 0,56 36,103 87,119l0 518c-67,59 -145,113 -229,157l0 -460c50,-16 87,-64 87,-119 0,-56 -36,-103 -87,-119l0 -203c49,-17 83,-64 83,-118 0,-59 -40,-108 -94,-122 -1,-45 -16,-219 -202,-338zm-837 762l0 -119c24,9 41,32 41,59 0,27 -17,51 -41,59zm308 743c81,31 176,56 286,68l0 -493c-50,-16 -87,-64 -87,-119 0,-56 36,-103 87,-119l0 -840c-326,123 -286,444 -286,444l0 339c50,16 87,64 87,119 0,56 -36,103 -87,119l0 482zm1009 -882c35,0 63,28 63,63 0,35 -28,63 -63,63 -35,0 -63,-28 -63,-63 0,-35 28,-63 63,-63zm-310 -227c35,0 63,28 63,63 0,35 -28,63 -63,63 -35,0 -63,-28 -63,-63 0,-35 28,-63 63,-63zm3 441c35,0 63,28 63,63 0,35 -28,63 -63,63 -35,0 -63,-28 -63,-63 0,-35 28,-63 63,-63zm-379 60c35,0 63,28 63,63 0,35 -28,63 -63,63 -35,0 -63,-28 -63,-63 0,-35 28,-63 63,-63zm-363 -58c35,0 63,28 63,63 0,35 -28,63 -63,63 -35,0 -63,-28 -63,-63 0,-35 28,-63 63,-63z"/>
      </clipPath>
      <clipPath id="id16">
       <path d="M1776 553c-61,21 -326,189 -431,298 -115,119 -205,210 -228,246 -23,37 -55,74 -97,106 -41,32 -101,124 -101,124 0,0 -60,138 18,318 75,173 165,248 174,262l0 -438c-50,-16 -87,-64 -87,-119 0,-69 56,-126 126,-126 69,0 126,56 126,126 0,56 -36,103 -87,119l0 516c48,40 119,90 214,135l0 -450c-50,-16 -87,-64 -87,-119 0,-56 36,-103 87,-119l0 -339c-18,-360 309,-495 348,-518 13,-7 20,-15 24,-21zm-295 1600c81,31 176,56 286,68l0 -493c-50,-16 -87,-64 -87,-119 0,-56 36,-103 87,-119l0 -840c-326,123 -286,444 -286,444l0 339c50,16 87,64 87,119 0,56 -36,103 -87,119l0 482zm363 73c104,0 206,-23 302,-62l0 -496c-50,-16 -87,-64 -87,-119 0,-56 36,-103 87,-119l0 -201c-52,-15 -90,-63 -90,-121 0,-58 40,-108 94,-122 -38,-250 -228,-325 -305,-345l0 848c50,16 87,64 87,119 0,56 -36,103 -87,119l0 498zm379 -98c84,-43 162,-98 229,-157l0 -518c-50,-16 -87,-64 -87,-119 0,-69 56,-126 126,-126 69,0 126,56 126,126 0,56 -36,103 -87,119l0 444c89,-94 151,-191 171,-267 60,-226 48,-403 -71,-573 -114,-162 -334,-497 -771,-506 17,40 103,69 103,69 232,118 250,318 251,367 54,14 94,63 94,122 0,55 -35,101 -83,118l0 203c50,16 87,64 87,119 0,56 -36,103 -87,119l0 460zm268 -857c35,0 63,28 63,63 0,35 -28,63 -63,63 -35,0 -63,-28 -63,-63 0,-35 28,-63 63,-63zm-310 -227c35,0 63,28 63,63 0,35 -28,63 -63,63 -35,0 -63,-28 -63,-63 0,-35 28,-63 63,-63zm3 441c35,0 63,28 63,63 0,35 -28,63 -63,63 -35,0 -63,-28 -63,-63 0,-35 28,-63 63,-63zm-379 60c35,0 63,28 63,63 0,35 -28,63 -63,63 -35,0 -63,-28 -63,-63 0,-35 28,-63 63,-63zm-363 -58c35,0 63,28 63,63 0,35 -28,63 -63,63 -35,0 -63,-28 -63,-63 0,-35 28,-63 63,-63zm-291 -200c35,0 63,28 63,63 0,35 -28,63 -63,63 -35,0 -63,-28 -63,-63 0,-35 28,-63 63,-63z"/>
      </clipPath>
  <linearGradient id="id17" gradientUnits="userSpaceOnUse" x1="2457" y1="146" x2="2196" y2="564">
   <stop offset="0" style="stop-opacity:1; stop-color:#F8FF98"/>
   <stop offset="1" style="stop-opacity:1; stop-color:#FEFEFE"/>
  </linearGradient>
  <linearGradient id="id18" gradientUnits="objectBoundingBox" x1="50.0532%" y1="0%" x2="49.947%" y2="100.003%">
   <stop offset="0" style="stop-opacity:1; stop-color:#F8FF19"/>
   <stop offset="1" style="stop-opacity:1; stop-color:#7DEE30"/>
  </linearGradient>
 </defs>
 <g id="Camada_x0020_1">
  <metadata id="CorelCorpID_0Corel-Layer"/>
  <g id="_1995579398480">
   <g style="clip-path:url(#id0)">
    <image x="2803" y="3204" width="934" height="227" xlink:href="logo_sem_fundo_Images\logo_sem_fundo_ImgID1.png"/>
   </g>
   <g>
    <g>
     <path class="fil0" d="M874 580c69,0 125,56 125,125 0,69 -56,125 -125,125 -69,0 -125,-56 -125,-125 0,-69 56,-125 125,-125zm0 59c36,0 66,29 66,66 0,36 -29,66 -66,66 -36,0 -66,-29 -66,-66 0,-36 29,-66 66,-66z"/>
     <path class="fil1" d="M874 626c44,0 79,36 79,79 0,44 -36,79 -79,79 -44,0 -79,-36 -79,-79 0,-44 36,-79 79,-79zm0 38c23,0 42,19 42,42 0,23 -19,42 -42,42 -23,0 -42,-19 -42,-42 0,-23 19,-42 42,-42z"/>
     <path class="fil1" d="M188 653c29,0 53,24 53,53 0,29 -24,53 -53,53 -29,0 -53,-24 -53,-53 0,-29 24,-53 53,-53zm0 25c15,0 28,12 28,28 0,15 -12,28 -28,28 -15,0 -28,-12 -28,-28 0,-15 12,-28 28,-28z"/>
     <rect class="fil1" x="234" y="687" width="515" height="38"/>
     <rect class="fil2" x="370" y="1341" width="394" height="38"/>
     <path class="fil0" d="M258 1486c-69,0 -125,-56 -125,-125 0,-69 56,-125 125,-125 69,0 125,56 125,125 0,69 -56,125 -125,125zm0 -59c-36,0 -66,-29 -66,-66 0,-36 29,-66 66,-66 36,0 66,29 66,66 0,36 -29,66 -66,66z"/>
     <path class="fil1" d="M258 1441c-44,0 -79,-36 -79,-79 0,-44 36,-79 79,-79 44,0 79,36 79,79 0,44 -36,79 -79,79zm0 -38c-23,0 -42,-19 -42,-42 0,-23 19,-42 42,-42 23,0 42,19 42,42 0,23 -19,42 -42,42z"/>
     <g>
      <polygon class="fil1" points="930,906 536,906 536,942 930,942 "/>
      <polygon class="fil1" points="437,1010 536,906 536,942 437,1046 "/>
      <polygon class="fil1" points="437,1010 234,1010 234,1046 437,1046 "/>
      <path class="fil1" d="M189 974c29,0 53,24 53,53 0,29 -24,53 -53,53 -29,0 -53,-24 -53,-53 0,-29 24,-53 53,-53zm0 25c15,0 28,12 28,28 0,15 -12,28 -28,28 -15,0 -28,-12 -28,-28 0,-15 12,-28 28,-28z"/>
     </g>
     <g>
      <polygon class="fil1" points="930,1827 536,1827 536,1792 930,1792 "/>
      <polygon class="fil1" points="437,1723 536,1827 536,1792 437,1687 "/>
      <polygon class="fil1" points="437,1723 234,1723 234,1687 437,1687 "/>
      <path class="fil1" d="M189 1759c29,0 53,-24 53,-53 0,-29 -24,-53 -53,-53 -29,0 -53,24 -53,53 0,29 24,53 53,53zm0 -25c15,0 28,-12 28,-28 0,-15 -12,-28 -28,-28 -15,0 -28,12 -28,28 0,15 12,28 28,28z"/>
     </g>
     <path class="fil0" d="M874 1939c69,0 125,56 125,125 0,69 -56,125 -125,125 -69,0 -125,-56 -125,-125 0,-69 56,-125 125,-125zm0 59c36,0 66,29 66,66 0,36 -29,66 -66,66 -36,0 -66,-29 -66,-66 0,-36 29,-66 66,-66z"/>
     <path class="fil1" d="M874 1984c44,0 79,36 79,79 0,44 -36,79 -79,79 -44,0 -79,-36 -79,-79 0,-44 36,-79 79,-79zm0 38c23,0 42,19 42,42 0,23 -19,42 -42,42 -23,0 -42,-19 -42,-42 0,-23 19,-42 42,-42z"/>
     <path class="fil1" d="M188 2011c29,0 53,24 53,53 0,29 -24,53 -53,53 -29,0 -53,-24 -53,-53 0,-29 24,-53 53,-53zm0 25c15,0 28,12 28,28 0,15 -12,28 -28,28 -15,0 -28,-12 -28,-28 0,-15 12,-28 28,-28z"/>
     <rect class="fil1" x="234" y="2046" width="515" height="38"/>
    </g>
    <g>
     <path class="fil0" d="M2821 580c-69,0 -125,56 -125,125 0,69 56,125 125,125 69,0 125,-56 125,-125 0,-69 -56,-125 -125,-125zm0 59c-36,0 -66,29 -66,66 0,36 29,66 66,66 36,0 66,-29 66,-66 0,-36 -29,-66 -66,-66z"/>
     <path class="fil1" d="M2821 626c-44,0 -79,36 -79,79 0,44 36,79 79,79 44,0 79,-36 79,-79 0,-44 -36,-79 -79,-79zm0 38c-23,0 -42,19 -42,42 0,23 19,42 42,42 23,0 42,-19 42,-42 0,-23 -19,-42 -42,-42z"/>
     <path class="fil1" d="M3507 653c-29,0 -53,24 -53,53 0,29 24,53 53,53 29,0 53,-24 53,-53 0,-29 -24,-53 -53,-53zm0 25c-15,0 -28,12 -28,28 0,15 12,28 28,28 15,0 28,-12 28,-28 0,-15 -12,-28 -28,-28z"/>
     <rect class="fil1" x="2946" y="687" width="515" height="38"/>
     <rect class="fil2" x="2931" y="1341" width="394" height="38"/>
     <path class="fil0" d="M3437 1486c69,0 125,-56 125,-125 0,-69 -56,-125 -125,-125 -69,0 -125,56 -125,125 0,69 56,125 125,125zm0 -59c36,0 66,-29 66,-66 0,-36 -29,-66 -66,-66 -36,0 -66,29 -66,66 0,36 29,66 66,66z"/>
     <path class="fil1" d="M3437 1441c44,0 79,-36 79,-79 0,-44 -36,-79 -79,-79 -44,0 -79,36 -79,79 0,44 36,79 79,79zm0 -38c23,0 42,-19 42,-42 0,-23 -19,-42 -42,-42 -23,0 -42,19 -42,42 0,23 19,42 42,42z"/>
     <g>
      <polygon class="fil1" points="2765,906 3159,906 3159,942 2765,942 "/>
      <polygon class="fil1" points="3258,1010 3159,906 3159,942 3258,1046 "/>
      <polygon class="fil1" points="3258,1010 3461,1010 3461,1046 3258,1046 "/>
      <path class="fil1" d="M3506 974c-29,0 -53,24 -53,53 0,29 24,53 53,53 29,0 53,-24 53,-53 0,-29 -24,-53 -53,-53zm0 25c-15,0 -28,12 -28,28 0,15 12,28 28,28 15,0 28,-12 28,-28 0,-15 -12,-28 -28,-28z"/>
     </g>
     <g>
      <polygon class="fil1" points="2765,1827 3159,1827 3159,1792 2765,1792 "/>
      <polygon class="fil1" points="3258,1723 3159,1827 3159,1792 3258,1687 "/>
      <polygon class="fil1" points="3258,1723 3461,1723 3461,1687 3258,1687 "/>
      <path class="fil1" d="M3506 1759c-29,0 -53,-24 -53,-53 0,-29 24,-53 53,-53 29,0 53,24 53,53 0,29 -24,53 -53,53zm0 -25c-15,0 -28,-12 -28,-28 0,-15 12,-28 28,-28 15,0 28,12 28,28 0,15 -12,28 -28,28z"/>
     </g>
     <path class="fil0" d="M2821 1939c-69,0 -125,56 -125,125 0,69 56,125 125,125 69,0 125,-56 125,-125 0,-69 -56,-125 -125,-125zm0 59c-36,0 -66,29 -66,66 0,36 29,66 66,66 36,0 66,-29 66,-66 0,-36 -29,-66 -66,-66z"/>
     <path class="fil1" d="M2821 1984c-44,0 -79,36 -79,79 0,44 36,79 79,79 44,0 79,-36 79,-79 0,-44 -36,-79 -79,-79zm0 38c-23,0 -42,19 -42,42 0,23 19,42 42,42 23,0 42,-19 42,-42 0,-23 -19,-42 -42,-42z"/>
     <path class="fil1" d="M3507 2011c-29,0 -53,24 -53,53 0,29 24,53 53,53 29,0 53,-24 53,-53 0,-29 -24,-53 -53,-53zm0 25c-15,0 -28,12 -28,28 0,15 12,28 28,28 15,0 28,-12 28,-28 0,-15 -12,-28 -28,-28z"/>
     <rect class="fil1" x="2946" y="2046" width="515" height="38"/>
    </g>
    <g style="clip-path:url(#id1)">
     <image x="679" y="429" width="2290" height="1988" xlink:href="logo_sem_fundo_Images\logo_sem_fundo_ImgID2.png"/>
    </g>
    <g style="clip-path:url(#id2)">
     <image x="724" y="470" width="2196" height="1905" xlink:href="logo_sem_fundo_Images\logo_sem_fundo_ImgID3.png"/>
    </g>
    <path class="fil3" d="M1563 501c0,0 -21,-15 -82,-1 -61,14 -234,86 -372,198 -138,112 -306,342 -348,557 -41,215 -21,606 497,930 518,325 947,71 1013,51 67,-21 472,-256 594,-631 122,-375 -150,-760 -421,-967 0,0 -7,-4 -17,2 -9,6 -18,15 -7,22 11,7 462,312 419,844 -44,532 -772,758 -772,758 0,0 -525,129 -949,-237 -424,-366 -325,-700 -276,-889 49,-189 286,-488 720,-637z"/>
    <path class="fil4" d="M1790 300c0,0 -200,-258 -550,-240 0,0 -111,28 -101,153 0,0 -26,61 68,73 94,12 290,76 365,153 0,0 41,48 -7,60 -48,12 -419,86 -661,499 -242,412 -69,785 189,1025 258,240 647,366 1087,212 440,-154 613,-523 654,-673 41,-150 37,-578 -415,-896 0,0 -29,-58 28,-66 58,-8 382,-136 508,-394 0,0 9,-37 -16,-60 -25,-23 -275,-192 -645,-134 -370,59 -424,226 -504,288z"/>
    <path class="fil5" d="M1263 232c0,0 286,31 439,245 0,0 53,-14 71,-16 18,-2 -5,-22 -5,-22 0,0 -69,-233 -481,-306 0,0 -13,-3 -18,7 -5,10 -31,65 -26,80 4,15 20,12 20,12z"/>
    <g style="clip-path:url(#id3)">
     <g>
      <path id="1" class="fil6" d="M1227 186c0,0 -8,33 61,21 69,-12 280,13 398,95 118,82 -141,-122 -151,-131 -10,-9 -180,-86 -185,-86 -6,1 -90,3 -92,8 -2,5 -37,36 -35,40 2,5 4,53 4,53z"/>
     </g>
    </g>
    <path class="fil7" d="M1263 232c0,0 286,31 439,245 0,0 53,-14 71,-16 18,-2 -5,-22 -5,-22 0,0 -69,-233 -481,-306 0,0 -13,-3 -18,7 -5,10 -31,65 -26,80 4,15 20,12 20,12z"/>
    <path class="fil8" d="M1857 405c0,0 289,-555 994,-227 0,0 16,15 -2,20 -18,5 -460,-61 -918,190 0,0 -60,35 -67,44 -7,10 -10,-10 -10,-10l4 -18z"/>
    <g style="clip-path:url(#id4)">
     <g>
      <path id="1" class="fil9" d="M2690 102c0,0 -259,-6 -385,35 -127,41 -393,185 -434,215 -41,30 74,-114 78,-117 4,-3 103,-75 103,-75 0,0 135,-105 259,-113 123,-8 378,23 381,28 3,5 -1,27 -1,27z"/>
     </g>
    </g>
    <path class="fil7" d="M1857 405c0,0 289,-555 994,-227 0,0 16,15 -2,20 -18,5 -460,-61 -918,190 0,0 -60,35 -67,44 -7,10 -10,-10 -10,-10l4 -18z"/>
    <path class="fil10" d="M1936 477c0,0 141,31 240,55 98,25 270,17 440,-84 170,-101 224,-229 224,-229 0,0 -40,10 -47,9 -6,-1 -274,27 -400,63 -127,36 -189,43 -271,81 -82,38 -199,102 -186,105z"/>
    <g style="clip-path:url(#id5)">
     <g>
     </g>
     <g style="clip-path:url(#id6)">
      <image x="1970" y="186" width="789" height="317" xlink:href="logo_sem_fundo_Images\logo_sem_fundo_ImgID4.png"/>
     </g>
     <g style="clip-path:url(#id7)">
     </g>
     <g style="clip-path:url(#id8)">
      <image x="1918" y="194" width="951" height="383" xlink:href="logo_sem_fundo_Images\logo_sem_fundo_ImgID5.png"/>
     </g>
     <g style="clip-path:url(#id9)">
      <path class="fil11" d="M1937 484c0,0 185,-100 299,-126 113,-26 193,-60 210,-64 17,-4 136,-27 144,-29 8,-2 100,-12 148,-35 48,-24 -326,36 -443,63 -116,26 -262,70 -286,94 -24,24 -104,64 -96,84 9,20 24,13 24,13z"/>
     </g>
    </g>
    <path class="fil7" d="M1936 477c0,0 141,31 240,55 98,25 270,17 440,-84 170,-101 224,-229 224,-229 0,0 -40,10 -47,9 -6,-1 -274,27 -400,63 -127,36 -189,43 -271,81 -82,38 -199,102 -186,105z"/>
    <path class="fil12" d="M1776 553c-61,21 -326,189 -431,298 -115,119 -205,210 -228,246 -23,37 -55,74 -97,106 -41,32 -101,124 -101,124 0,0 -60,138 18,318 75,173 165,248 174,262l0 -438c-50,-16 -87,-64 -87,-119 0,-69 56,-126 126,-126 69,0 126,56 126,126 0,56 -36,103 -87,119l0 516c48,40 119,90 214,135l0 -450c-50,-16 -87,-64 -87,-119 0,-56 36,-103 87,-119l0 -339c-18,-360 309,-495 348,-518 13,-7 20,-15 24,-21zm-295 1600c81,31 176,56 286,68l0 -493c-50,-16 -87,-64 -87,-119 0,-56 36,-103 87,-119l0 -840c-326,123 -286,444 -286,444l0 339c50,16 87,64 87,119 0,56 -36,103 -87,119l0 482zm363 73c104,0 206,-23 302,-62l0 -496c-50,-16 -87,-64 -87,-119 0,-56 36,-103 87,-119l0 -201c-52,-15 -90,-63 -90,-121 0,-58 40,-108 94,-122 -38,-250 -228,-325 -305,-345l0 848c50,16 87,64 87,119 0,56 -36,103 -87,119l0 498zm379 -98c84,-43 162,-98 229,-157l0 -518c-50,-16 -87,-64 -87,-119 0,-69 56,-126 126,-126 69,0 126,56 126,126 0,56 -36,103 -87,119l0 444c89,-94 151,-191 171,-267 60,-226 48,-403 -71,-573 -114,-162 -334,-497 -771,-506 17,40 103,69 103,69 232,118 250,318 251,367 54,14 94,63 94,122 0,55 -35,101 -83,118l0 203c50,16 87,64 87,119 0,56 -36,103 -87,119l0 460zm268 -857c35,0 63,28 63,63 0,35 -28,63 -63,63 -35,0 -63,-28 -63,-63 0,-35 28,-63 63,-63zm-310 -227c35,0 63,28 63,63 0,35 -28,63 -63,63 -35,0 -63,-28 -63,-63 0,-35 28,-63 63,-63zm3 441c35,0 63,28 63,63 0,35 -28,63 -63,63 -35,0 -63,-28 -63,-63 0,-35 28,-63 63,-63zm-379 60c35,0 63,28 63,63 0,35 -28,63 -63,63 -35,0 -63,-28 -63,-63 0,-35 28,-63 63,-63zm-363 -58c35,0 63,28 63,63 0,35 -28,63 -63,63 -35,0 -63,-28 -63,-63 0,-35 28,-63 63,-63zm-291 -200c35,0 63,28 63,63 0,35 -28,63 -63,63 -35,0 -63,-28 -63,-63 0,-35 28,-63 63,-63z"/>
    <g style="clip-path:url(#id10)">
     <g>
     </g>
     <g style="clip-path:url(#id11)">
      <image x="916" y="374" width="1806" height="1920" xlink:href="logo_sem_fundo_Images\logo_sem_fundo_ImgID6.png"/>
     </g>
     <g style="clip-path:url(#id12)">
     </g>
     <g style="clip-path:url(#id13)">
      <image x="1166" y="610" width="1603" height="1651" xlink:href="logo_sem_fundo_Images\logo_sem_fundo_ImgID7.png"/>
     </g>
     <g style="clip-path:url(#id14)">
     </g>
     <g style="clip-path:url(#id15)">
      <image x="1172" y="647" width="1610" height="1629" xlink:href="logo_sem_fundo_Images\logo_sem_fundo_ImgID8.png"/>
     </g>
     <g style="clip-path:url(#id16)">
     </g>
    </g>
    <path class="fil7" d="M1776 553c-61,21 -326,189 -431,298 -115,119 -205,210 -228,246 -23,37 -55,74 -97,106 -41,32 -101,124 -101,124 0,0 -60,138 18,318 75,173 165,248 174,262l0 -438c-50,-16 -87,-64 -87,-119 0,-69 56,-126 126,-126 69,0 126,56 126,126 0,56 -36,103 -87,119l0 516c48,40 119,90 214,135l0 -450c-50,-16 -87,-64 -87,-119 0,-56 36,-103 87,-119l0 -339c-18,-360 309,-495 348,-518 13,-7 20,-15 24,-21zm-295 1600c81,31 176,56 286,68l0 -493c-50,-16 -87,-64 -87,-119 0,-56 36,-103 87,-119l0 -840c-326,123 -286,444 -286,444l0 339c50,16 87,64 87,119 0,56 -36,103 -87,119l0 482zm363 73c104,0 206,-23 302,-62l0 -496c-50,-16 -87,-64 -87,-119 0,-56 36,-103 87,-119l0 -201c-52,-15 -90,-63 -90,-121 0,-58 40,-108 94,-122 -38,-250 -228,-325 -305,-345l0 848c50,16 87,64 87,119 0,56 -36,103 -87,119l0 498zm379 -98c84,-43 162,-98 229,-157l0 -518c-50,-16 -87,-64 -87,-119 0,-69 56,-126 126,-126 69,0 126,56 126,126 0,56 -36,103 -87,119l0 444c89,-94 151,-191 171,-267 60,-226 48,-403 -71,-573 -114,-162 -334,-497 -771,-506 17,40 103,69 103,69 232,118 250,318 251,367 54,14 94,63 94,122 0,55 -35,101 -83,118l0 203c50,16 87,64 87,119 0,56 -36,103 -87,119l0 460zm268 -857c35,0 63,28 63,63 0,35 -28,63 -63,63 -35,0 -63,-28 -63,-63 0,-35 28,-63 63,-63zm-310 -227c35,0 63,28 63,63 0,35 -28,63 -63,63 -35,0 -63,-28 -63,-63 0,-35 28,-63 63,-63zm3 441c35,0 63,28 63,63 0,35 -28,63 -63,63 -35,0 -63,-28 -63,-63 0,-35 28,-63 63,-63zm-379 60c35,0 63,28 63,63 0,35 -28,63 -63,63 -35,0 -63,-28 -63,-63 0,-35 28,-63 63,-63zm-363 -58c35,0 63,28 63,63 0,35 -28,63 -63,63 -35,0 -63,-28 -63,-63 0,-35 28,-63 63,-63zm-291 -200c35,0 63,28 63,63 0,35 -28,63 -63,63 -35,0 -63,-28 -63,-63 0,-35 28,-63 63,-63z"/>
    <path class="fil13" d="M1779 553c0,0 -99,-28 -325,70 -226,98 -292,234 -364,305 -71,71 -188,264 -193,386 -6,122 2,207 25,280 23,73 -12,-158 16,-236 28,-78 55,-106 83,-121 28,-15 88,-85 150,-160 62,-75 295,-310 332,-326 37,-16 48,-42 69,-60 21,-18 88,-67 116,-79 28,-12 87,-44 89,-59l3 1z"/>
   </g>
   <path class="fil14" d="M107 2873l0 -150 101 0c61,0 87,31 87,74 0,45 -25,76 -87,76l-101 0zm0 272l0 -185 118 0c100,0 164,-67 164,-160 0,-92 -64,-165 -164,-165l-225 0 0 510 107 0z"/>
   <polygon id="1" class="fil14" points="797,3144 797,3054 514,3054 514,2922 763,2922 763,2833 514,2833 514,2724 785,2724 785,2635 410,2635 410,3144 "/>
   <path id="2" class="fil14" d="M1217 3155c0,50 -23,75 -52,75 -32,0 -55,-25 -55,-83 124,-19 191,-128 191,-251 0,-175 -87,-279 -243,-279 -157,0 -245,104 -245,276 0,155 71,242 198,259l0 16c0,91 61,154 145,154 90,0 155,-71 155,-168l-94 0zm-160 -84c-88,0 -140,-54 -140,-174 0,-121 50,-184 140,-184 89,0 138,64 138,184 0,121 -61,174 -138,174z"/>
   <path id="3" class="fil14" d="M1635 2975c0,67 -34,99 -102,99 -58,0 -91,-40 -91,-103l0 -336 -108 0 0 346c0,123 78,181 201,181 134,0 210,-64 210,-187l0 -340 -109 0 0 340z"/>
   <polygon id="4" class="fil14" points="1890,3144 1890,2635 1783,2635 1783,3144 "/>
   <polygon class="fil15" points="2223,3144 2223,2723 2378,2723 2378,2634 1963,2634 1963,2723 2117,2723 2117,3144 "/>
   <polygon id="1" class="fil15" points="2790,3144 2790,3054 2507,3054 2507,2922 2756,2922 2756,2832 2507,2832 2507,2723 2778,2723 2778,2634 2403,2634 2403,3144 "/>
   <path id="2" class="fil15" d="M3154 2969c-15,64 -53,100 -116,100 -83,0 -124,-67 -124,-180 0,-111 41,-180 130,-180 51,0 96,35 111,92l107 0c-10,-103 -91,-184 -218,-184 -146,0 -237,105 -237,278 0,175 102,266 236,266 118,0 198,-77 220,-193l-107 0z"/>
   <polygon id="3" class="fil15" points="3695,3144 3695,2634 3587,2634 3587,2826 3389,2826 3389,2634 3282,2634 3282,3144 3389,3144 3389,2915 3587,2915 3587,3144 "/>
   <polygon class="fil16" points="2964,3403 2964,3232 2931,3232 2931,3342 2863,3232 2825,3232 2825,3403 2858,3403 2858,3288 2931,3403 "/>
   <polygon id="1" class="fil16" points="3190,3403 3190,3372 3096,3372 3096,3328 3179,3328 3179,3298 3096,3298 3096,3262 3186,3262 3186,3232 3061,3232 3061,3403 "/>
   <polygon id="2" class="fil16" points="3446,3403 3494,3232 3458,3232 3430,3342 3404,3232 3366,3232 3343,3342 3315,3232 3277,3232 3325,3403 3358,3403 3385,3292 3412,3403 "/>
   <path id="3" class="fil16" d="M3708 3282c-1,-33 -25,-56 -69,-56 -42,0 -62,22 -62,52 0,22 10,34 29,42 12,5 26,8 47,13 21,5 26,12 26,22 0,15 -12,24 -33,24 -23,0 -38,-11 -38,-28l-34 0c1,38 30,57 72,57 40,0 68,-17 68,-54 0,-24 -12,-35 -27,-41 -13,-6 -31,-10 -51,-15 -19,-5 -26,-11 -26,-22 0,-13 11,-20 31,-20 22,0 32,8 34,26l34 0z"/>
   <polygon id="4" class="fil17 str0" points="2964,3403 2964,3232 2931,3232 2931,3342 2863,3232 2825,3232 2825,3403 2858,3403 2858,3288 2931,3403 "/>
   <polygon id="5" class="fil17 str0" points="3190,3403 3190,3372 3096,3372 3096,3328 3179,3328 3179,3298 3096,3298 3096,3262 3186,3262 3186,3232 3061,3232 3061,3403 "/>
   <polygon id="6" class="fil17 str0" points="3446,3403 3494,3232 3458,3232 3430,3342 3404,3232 3366,3232 3343,3342 3315,3232 3277,3232 3325,3403 3358,3403 3385,3292 3412,3403 "/>
   <path id="7" class="fil17 str0" d="M3708 3282c-1,-33 -25,-56 -69,-56 -42,0 -62,22 -62,52 0,22 10,34 29,42 12,5 26,8 47,13 21,5 26,12 26,22 0,15 -12,24 -33,24 -23,0 -38,-11 -38,-28l-34 0c1,38 30,57 72,57 40,0 68,-17 68,-54 0,-24 -12,-35 -27,-41 -13,-6 -31,-10 -51,-15 -19,-5 -26,-11 -26,-22 0,-13 11,-20 31,-20 22,0 32,8 34,26l34 0z"/>
  </g>
 </g>
</svg>
