<?xml version="1.0" encoding="UTF-8"?>
<!DOCTYPE svg PUBLIC "-//W3C//DTD SVG 1.0//EN" "http://www.w3.org/TR/2001/REC-SVG-20010904/DTD/svg10.dtd">
<!-- Creator: CorelDRAW 2020 (64 Bit) -->
<svg xmlns="http://www.w3.org/2000/svg" xml:space="preserve" width="86.1106mm" height="81.4344mm" version="1.0" style="shape-rendering:geometricPrecision; text-rendering:geometricPrecision; image-rendering:optimizeQuality; fill-rule:evenodd; clip-rule:evenodd"
viewBox="0 0 3759 3555"
 xmlns:xlink="http://www.w3.org/1999/xlink"
 xmlns:xodm="http://www.corel.com/coreldraw/odm/2003">
 <defs>
  <style type="text/css">
   <![CDATA[
    .str0 {stroke:#CCCCCC;stroke-width:3;stroke-miterlimit:22.9256}
    .fil7 {fill:none}
    .fil17 {fill:none;fill-rule:nonzero}
    .fil10 {fill:#55AF3B}
    .fil4 {fill:#101A25}
    .fil0 {fill:#3A4C51}
    .fil8 {fill:#DCFF1B}
    .fil5 {fill:#F3FF25}
    .fil3 {fill:#F9FEB6}
    .fil6 {fill:#FBFCE7}
    .fil2 {fill:#FBFF78}
    .fil13 {fill:#FDFFEB}
    .fil12 {fill:#FEF227}
    .fil9 {fill:#FEFEF3}
    .fil1 {fill:#FFEE22}
    .fil16 {fill:#F9FEB6;fill-rule:nonzero}
    .fil14 {fill:white;fill-rule:nonzero}
    .fil11 {fill:url(#id17)}
    .fil15 {fill:url(#id18);fill-rule:nonzero}
   ]]>
  </style>
   <clipPath id="id0">
    <rect x="2377" y="3292" width="1382" height="262"/>
   </clipPath>
    <clipPath id="id1">
     <rect x="681" y="430" width="2297" height="1993"/>
    </clipPath>
    <clipPath id="id2">
     <rect x="726" y="472" width="2203" height="1911"/>
    </clipPath>
    <clipPath id="id3">
     <path d="M1267 233c0,0 287,31 441,246 0,0 53,-14 72,-16 18,-2 -5,-22 -5,-22 0,0 -69,-233 -483,-307 0,0 -13,-3 -18,7 -5,10 -31,65 -27,80 4,15 20,12 20,12z"/>
    </clipPath>
    <clipPath id="id4">
     <path d="M1862 406c0,0 290,-557 997,-228 0,0 16,15 -2,20 -18,5 -461,-61 -921,191 0,0 -60,35 -67,44 -8,10 -10,-10 -10,-10l4 -18z"/>
    </clipPath>
    <clipPath id="id5">
     <path d="M1942 478c0,0 141,31 240,55 99,25 271,17 441,-84 170,-102 225,-229 225,-229 0,0 -40,10 -47,9 -6,-1 -274,27 -401,63 -127,36 -189,43 -271,81 -82,38 -199,102 -187,105z"/>
    </clipPath>
     <clipPath id="id6">
      <path d="M1975 485c22,5 52,12 86,19l446 0c38,-14 77,-32 116,-56 62,-37 109,-78 143,-114l0 -102c-78,8 -266,31 -367,60 -127,36 -189,43 -271,81 -50,23 -114,57 -153,79l0 33z"/>
     </clipPath>
     <clipPath id="id7">
      <path d="M1942 478c0,0 141,31 240,55 99,25 271,17 441,-84 170,-102 225,-229 225,-229 0,0 -40,10 -47,9 -6,-1 -274,27 -401,63 -127,36 -189,43 -271,81 -82,38 -199,102 -187,105z"/>
     </clipPath>
     <clipPath id="id8">
      <path d="M1942 478c0,0 141,31 240,55 99,25 271,17 441,-84 170,-102 225,-229 225,-229 0,0 -40,10 -47,9 -6,-1 -274,27 -401,63 -127,36 -189,43 -271,81 -82,38 -199,102 -187,105z"/>
     </clipPath>
     <clipPath id="id9">
      <path d="M1942 478c0,0 141,31 240,55 99,25 271,17 441,-84 170,-102 225,-229 225,-229 0,0 -40,10 -47,9 -6,-1 -274,27 -401,63 -127,36 -189,43 -271,81 -82,38 -199,102 -187,105z"/>
     </clipPath>
    <clipPath id="id10">
     <path d="M1781 554c-61,21 -327,189 -432,298 -115,120 -206,210 -229,247 -23,37 -55,74 -97,106 -42,32 -102,125 -102,125 0,0 -60,139 18,319 76,173 166,249 175,263l0 -439c-51,-16 -87,-64 -87,-120 0,-70 56,-126 126,-126 70,0 126,56 126,126 0,56 -37,103 -87,120l0 517c48,40 120,91 215,135l0 -451c-51,-16 -87,-64 -87,-120 0,-56 37,-103 87,-120l0 -340c-18,-361 310,-497 349,-520 13,-7 20,-15 24,-21zm-296 1604c82,31 177,56 286,69l0 -495c-51,-16 -87,-64 -87,-120 0,-56 37,-103 87,-120l0 -842c-327,123 -286,445 -286,445l0 340c51,16 87,64 87,120 0,56 -37,103 -87,120l0 484zm364 73c105,0 207,-23 303,-63l0 -497c-51,-16 -87,-64 -87,-120 0,-56 37,-103 87,-120l0 -202c-52,-15 -91,-64 -91,-121 0,-59 40,-108 94,-122 -38,-251 -229,-326 -306,-346l0 850c51,16 87,64 87,120 0,56 -37,103 -87,120l0 500zm380 -98c85,-44 162,-98 230,-157l0 -519c-51,-16 -87,-64 -87,-120 0,-70 56,-126 126,-126 70,0 126,56 126,126 0,56 -37,103 -87,120l0 445c90,-94 151,-192 171,-268 60,-226 49,-404 -72,-575 -114,-163 -335,-498 -773,-508 17,40 103,69 103,69 233,118 251,319 252,368 54,14 95,63 95,122 0,55 -35,101 -84,119l0 204c51,16 87,64 87,120 0,56 -37,103 -87,120l0 461zm269 -859c35,0 64,28 64,64 0,35 -28,64 -64,64 -35,0 -64,-28 -64,-64 0,-35 28,-64 64,-64zm-311 -228c35,0 64,28 64,64 0,35 -28,64 -64,64 -35,0 -64,-28 -64,-64 0,-35 28,-64 64,-64zm3 442c35,0 64,28 64,64 0,35 -28,64 -64,64 -35,0 -64,-28 -64,-64 0,-35 28,-64 64,-64zm-380 60c35,0 64,28 64,64 0,35 -28,64 -64,64 -35,0 -64,-28 -64,-64 0,-35 28,-64 64,-64zm-364 -58c35,0 64,28 64,64 0,35 -28,64 -64,64 -35,0 -64,-28 -64,-64 0,-35 28,-64 64,-64zm-292 -201c35,0 64,28 64,64 0,35 -28,64 -64,64 -35,0 -64,-28 -64,-64 0,-35 28,-64 64,-64z"/>
    </clipPath>
     <clipPath id="id11">
      <path d="M1781 554c-61,21 -327,189 -432,298 -115,120 -206,210 -229,247 -23,37 -55,74 -97,106 -42,32 -102,125 -102,125 0,0 -1,3 -3,8l0 251c6,19 13,39 22,59 76,173 166,249 175,263l0 -439c-51,-16 -87,-64 -87,-120 0,-70 56,-126 126,-126 70,0 126,56 126,126 0,56 -37,103 -87,120l0 517c48,40 120,91 215,135l0 -451c-51,-16 -87,-64 -87,-120 0,-56 37,-103 87,-120l0 -340c-18,-361 310,-497 349,-520 13,-7 20,-15 24,-21zm949 715l0 263c-6,33 -13,67 -23,102 -20,76 -82,174 -171,268l0 -445c51,-16 87,-64 87,-120 0,-70 -56,-126 -126,-126 -70,0 -126,56 -126,126 0,56 37,103 87,120l0 519c-67,59 -145,114 -230,157l0 -461c51,-16 87,-64 87,-120 0,-56 -37,-103 -87,-120l0 -204c49,-17 84,-64 84,-119 0,-59 -40,-108 -95,-122 -1,-49 -19,-250 -252,-368 0,0 -86,-29 -103,-69 438,10 659,345 773,508 48,68 78,137 94,210zm-1245 889c82,31 177,56 286,69l0 -495c-51,-16 -87,-64 -87,-120 0,-56 37,-103 87,-120l0 -842c-327,123 -286,445 -286,445l0 340c51,16 87,64 87,120 0,56 -37,103 -87,120l0 484zm364 73c105,0 207,-23 303,-63l0 -497c-51,-16 -87,-64 -87,-120 0,-56 37,-103 87,-120l0 -202c-52,-15 -91,-64 -91,-121 0,-59 40,-108 94,-122 -38,-251 -229,-326 -306,-346l0 850c51,16 87,64 87,120 0,56 -37,103 -87,120l0 500zm649 -958c35,0 64,28 64,64 0,35 -28,64 -64,64 -35,0 -64,-28 -64,-64 0,-35 28,-64 64,-64zm-311 -228c35,0 64,28 64,64 0,35 -28,64 -64,64 -35,0 -64,-28 -64,-64 0,-35 28,-64 64,-64zm3 442c35,0 64,28 64,64 0,35 -28,64 -64,64 -35,0 -64,-28 -64,-64 0,-35 28,-64 64,-64zm-380 60c35,0 64,28 64,64 0,35 -28,64 -64,64 -35,0 -64,-28 -64,-64 0,-35 28,-64 64,-64zm-364 -58c35,0 64,28 64,64 0,35 -28,64 -64,64 -35,0 -64,-28 -64,-64 0,-35 28,-64 64,-64zm-292 -201c35,0 64,28 64,64 0,35 -28,64 -64,64 -35,0 -64,-28 -64,-64 0,-35 28,-64 64,-64z"/>
     </clipPath>
     <clipPath id="id12">
      <path d="M1781 554c-61,21 -327,189 -432,298 -115,120 -206,210 -229,247 -23,37 -55,74 -97,106 -42,32 -102,125 -102,125 0,0 -60,139 18,319 76,173 166,249 175,263l0 -439c-51,-16 -87,-64 -87,-120 0,-70 56,-126 126,-126 70,0 126,56 126,126 0,56 -37,103 -87,120l0 517c48,40 120,91 215,135l0 -451c-51,-16 -87,-64 -87,-120 0,-56 37,-103 87,-120l0 -340c-18,-361 310,-497 349,-520 13,-7 20,-15 24,-21zm-296 1604c82,31 177,56 286,69l0 -495c-51,-16 -87,-64 -87,-120 0,-56 37,-103 87,-120l0 -842c-327,123 -286,445 -286,445l0 340c51,16 87,64 87,120 0,56 -37,103 -87,120l0 484zm364 73c105,0 207,-23 303,-63l0 -497c-51,-16 -87,-64 -87,-120 0,-56 37,-103 87,-120l0 -202c-52,-15 -91,-64 -91,-121 0,-59 40,-108 94,-122 -38,-251 -229,-326 -306,-346l0 850c51,16 87,64 87,120 0,56 -37,103 -87,120l0 500zm380 -98c85,-44 162,-98 230,-157l0 -519c-51,-16 -87,-64 -87,-120 0,-70 56,-126 126,-126 70,0 126,56 126,126 0,56 -37,103 -87,120l0 445c90,-94 151,-192 171,-268 60,-226 49,-404 -72,-575 -114,-163 -335,-498 -773,-508 17,40 103,69 103,69 233,118 251,319 252,368 54,14 95,63 95,122 0,55 -35,101 -84,119l0 204c51,16 87,64 87,120 0,56 -37,103 -87,120l0 461zm269 -859c35,0 64,28 64,64 0,35 -28,64 -64,64 -35,0 -64,-28 -64,-64 0,-35 28,-64 64,-64zm-311 -228c35,0 64,28 64,64 0,35 -28,64 -64,64 -35,0 -64,-28 -64,-64 0,-35 28,-64 64,-64zm3 442c35,0 64,28 64,64 0,35 -28,64 -64,64 -35,0 -64,-28 -64,-64 0,-35 28,-64 64,-64zm-380 60c35,0 64,28 64,64 0,35 -28,64 -64,64 -35,0 -64,-28 -64,-64 0,-35 28,-64 64,-64zm-364 -58c35,0 64,28 64,64 0,35 -28,64 -64,64 -35,0 -64,-28 -64,-64 0,-35 28,-64 64,-64zm-292 -201c35,0 64,28 64,64 0,35 -28,64 -64,64 -35,0 -64,-28 -64,-64 0,-35 28,-64 64,-64z"/>
     </clipPath>
     <clipPath id="id13">
      <path d="M1673 612c-105,64 -252,166 -324,241 -74,76 -137,141 -179,187l0 189c62,8 110,61 110,125 0,56 -37,103 -87,120l0 517c48,40 120,91 215,135l0 -451c-51,-16 -87,-64 -87,-120 0,-56 37,-103 87,-120l0 -340c-14,-276 175,-420 282,-483l-16 0zm271 0l208 0c252,106 398,325 483,447 120,171 132,349 72,575 -20,76 -82,174 -171,268l0 -445c51,-16 87,-64 87,-120 0,-70 -56,-126 -126,-126 -70,0 -126,56 -126,126 0,56 37,103 87,120l0 519c-67,59 -145,114 -230,157l0 -461c51,-16 87,-64 87,-120 0,-56 -37,-103 -87,-120l0 -204c49,-17 84,-64 84,-119 0,-59 -40,-108 -95,-122 -1,-49 -19,-250 -252,-368 0,0 -9,-3 -22,-9zm-774 803l0 -123c27,7 47,32 47,61 0,29 -20,54 -47,61zm315 743c82,31 177,56 286,69l0 -495c-51,-16 -87,-64 -87,-120 0,-56 37,-103 87,-120l0 -842c-327,123 -286,445 -286,445l0 340c51,16 87,64 87,120 0,56 -37,103 -87,120l0 484zm364 73c105,0 207,-23 303,-63l0 -497c-51,-16 -87,-64 -87,-120 0,-56 37,-103 87,-120l0 -202c-52,-15 -91,-64 -91,-121 0,-59 40,-108 94,-122 -38,-251 -229,-326 -306,-346l0 850c51,16 87,64 87,120 0,56 -37,103 -87,120l0 500zm649 -958c35,0 64,28 64,64 0,35 -28,64 -64,64 -35,0 -64,-28 -64,-64 0,-35 28,-64 64,-64zm-311 -228c35,0 64,28 64,64 0,35 -28,64 -64,64 -35,0 -64,-28 -64,-64 0,-35 28,-64 64,-64zm3 442c35,0 64,28 64,64 0,35 -28,64 -64,64 -35,0 -64,-28 -64,-64 0,-35 28,-64 64,-64zm-380 60c35,0 64,28 64,64 0,35 -28,64 -64,64 -35,0 -64,-28 -64,-64 0,-35 28,-64 64,-64zm-364 -58c35,0 64,28 64,64 0,35 -28,64 -64,64 -35,0 -64,-28 -64,-64 0,-35 28,-64 64,-64z"/>
     </clipPath>
     <clipPath id="id14">
      <path d="M1781 554c-61,21 -327,189 -432,298 -115,120 -206,210 -229,247 -23,37 -55,74 -97,106 -42,32 -102,125 -102,125 0,0 -60,139 18,319 76,173 166,249 175,263l0 -439c-51,-16 -87,-64 -87,-120 0,-70 56,-126 126,-126 70,0 126,56 126,126 0,56 -37,103 -87,120l0 517c48,40 120,91 215,135l0 -451c-51,-16 -87,-64 -87,-120 0,-56 37,-103 87,-120l0 -340c-18,-361 310,-497 349,-520 13,-7 20,-15 24,-21zm-296 1604c82,31 177,56 286,69l0 -495c-51,-16 -87,-64 -87,-120 0,-56 37,-103 87,-120l0 -842c-327,123 -286,445 -286,445l0 340c51,16 87,64 87,120 0,56 -37,103 -87,120l0 484zm364 73c105,0 207,-23 303,-63l0 -497c-51,-16 -87,-64 -87,-120 0,-56 37,-103 87,-120l0 -202c-52,-15 -91,-64 -91,-121 0,-59 40,-108 94,-122 -38,-251 -229,-326 -306,-346l0 850c51,16 87,64 87,120 0,56 -37,103 -87,120l0 500zm380 -98c85,-44 162,-98 230,-157l0 -519c-51,-16 -87,-64 -87,-120 0,-70 56,-126 126,-126 70,0 126,56 126,126 0,56 -37,103 -87,120l0 445c90,-94 151,-192 171,-268 60,-226 49,-404 -72,-575 -114,-163 -335,-498 -773,-508 17,40 103,69 103,69 233,118 251,319 252,368 54,14 95,63 95,122 0,55 -35,101 -84,119l0 204c51,16 87,64 87,120 0,56 -37,103 -87,120l0 461zm269 -859c35,0 64,28 64,64 0,35 -28,64 -64,64 -35,0 -64,-28 -64,-64 0,-35 28,-64 64,-64zm-311 -228c35,0 64,28 64,64 0,35 -28,64 -64,64 -35,0 -64,-28 -64,-64 0,-35 28,-64 64,-64zm3 442c35,0 64,28 64,64 0,35 -28,64 -64,64 -35,0 -64,-28 -64,-64 0,-35 28,-64 64,-64zm-380 60c35,0 64,28 64,64 0,35 -28,64 -64,64 -35,0 -64,-28 -64,-64 0,-35 28,-64 64,-64zm-364 -58c35,0 64,28 64,64 0,35 -28,64 -64,64 -35,0 -64,-28 -64,-64 0,-35 28,-64 64,-64zm-292 -201c35,0 64,28 64,64 0,35 -28,64 -64,64 -35,0 -64,-28 -64,-64 0,-35 28,-64 64,-64z"/>
     </clipPath>
     <clipPath id="id15">
      <path d="M1614 649c-96,62 -206,142 -265,204 -70,73 -131,135 -173,181l0 196c59,10 104,62 104,124 0,56 -37,103 -87,120l0 517c48,40 120,91 215,135l0 -451c-51,-16 -87,-64 -87,-120 0,-56 37,-103 87,-120l0 -340c-11,-232 119,-370 225,-446l-18 0zm234 0l22 0c87,28 249,110 284,339 -54,14 -94,63 -94,122 0,57 38,106 91,121l0 202c-51,16 -87,64 -87,120 0,56 37,103 87,120l0 497c-96,39 -198,63 -303,63l0 -500c51,-16 87,-64 87,-120 0,-56 -37,-103 -87,-120l0 -844zm167 0l213 0c206,114 331,301 407,410 120,171 132,349 72,575 -20,76 -82,174 -171,268l0 -445c51,-16 87,-64 87,-120 0,-70 -56,-126 -126,-126 -70,0 -126,56 -126,126 0,56 37,103 87,120l0 519c-67,59 -145,114 -230,157l0 -461c51,-16 87,-64 87,-120 0,-56 -37,-103 -87,-120l0 -204c49,-17 84,-64 84,-119 0,-59 -40,-108 -95,-122 -1,-45 -16,-220 -202,-339zm-840 765l0 -119c24,9 42,32 42,60 0,27 -17,51 -42,60zm309 745c82,31 177,56 286,69l0 -495c-51,-16 -87,-64 -87,-120 0,-56 37,-103 87,-120l0 -842c-327,123 -286,445 -286,445l0 340c51,16 87,64 87,120 0,56 -37,103 -87,120l0 484zm1012 -884c35,0 64,28 64,64 0,35 -28,64 -64,64 -35,0 -64,-28 -64,-64 0,-35 28,-64 64,-64zm-311 -228c35,0 64,28 64,64 0,35 -28,64 -64,64 -35,0 -64,-28 -64,-64 0,-35 28,-64 64,-64zm3 442c35,0 64,28 64,64 0,35 -28,64 -64,64 -35,0 -64,-28 -64,-64 0,-35 28,-64 64,-64zm-380 60c35,0 64,28 64,64 0,35 -28,64 -64,64 -35,0 -64,-28 -64,-64 0,-35 28,-64 64,-64zm-364 -58c35,0 64,28 64,64 0,35 -28,64 -64,64 -35,0 -64,-28 -64,-64 0,-35 28,-64 64,-64z"/>
     </clipPath>
     <clipPath id="id16">
      <path d="M1781 554c-61,21 -327,189 -432,298 -115,120 -206,210 -229,247 -23,37 -55,74 -97,106 -42,32 -102,125 -102,125 0,0 -60,139 18,319 76,173 166,249 175,263l0 -439c-51,-16 -87,-64 -87,-120 0,-70 56,-126 126,-126 70,0 126,56 126,126 0,56 -37,103 -87,120l0 517c48,40 120,91 215,135l0 -451c-51,-16 -87,-64 -87,-120 0,-56 37,-103 87,-120l0 -340c-18,-361 310,-497 349,-520 13,-7 20,-15 24,-21zm-296 1604c82,31 177,56 286,69l0 -495c-51,-16 -87,-64 -87,-120 0,-56 37,-103 87,-120l0 -842c-327,123 -286,445 -286,445l0 340c51,16 87,64 87,120 0,56 -37,103 -87,120l0 484zm364 73c105,0 207,-23 303,-63l0 -497c-51,-16 -87,-64 -87,-120 0,-56 37,-103 87,-120l0 -202c-52,-15 -91,-64 -91,-121 0,-59 40,-108 94,-122 -38,-251 -229,-326 -306,-346l0 850c51,16 87,64 87,120 0,56 -37,103 -87,120l0 500zm380 -98c85,-44 162,-98 230,-157l0 -519c-51,-16 -87,-64 -87,-120 0,-70 56,-126 126,-126 70,0 126,56 126,126 0,56 -37,103 -87,120l0 445c90,-94 151,-192 171,-268 60,-226 49,-404 -72,-575 -114,-163 -335,-498 -773,-508 17,40 103,69 103,69 233,118 251,319 252,368 54,14 95,63 95,122 0,55 -35,101 -84,119l0 204c51,16 87,64 87,120 0,56 -37,103 -87,120l0 461zm269 -859c35,0 64,28 64,64 0,35 -28,64 -64,64 -35,0 -64,-28 -64,-64 0,-35 28,-64 64,-64zm-311 -228c35,0 64,28 64,64 0,35 -28,64 -64,64 -35,0 -64,-28 -64,-64 0,-35 28,-64 64,-64zm3 442c35,0 64,28 64,64 0,35 -28,64 -64,64 -35,0 -64,-28 -64,-64 0,-35 28,-64 64,-64zm-380 60c35,0 64,28 64,64 0,35 -28,64 -64,64 -35,0 -64,-28 -64,-64 0,-35 28,-64 64,-64zm-364 -58c35,0 64,28 64,64 0,35 -28,64 -64,64 -35,0 -64,-28 -64,-64 0,-35 28,-64 64,-64zm-292 -201c35,0 64,28 64,64 0,35 -28,64 -64,64 -35,0 -64,-28 -64,-64 0,-35 28,-64 64,-64z"/>
     </clipPath>
  <linearGradient id="id17" gradientUnits="userSpaceOnUse" x1="2464" y1="147" x2="2203" y2="565">
   <stop offset="0" style="stop-opacity:1; stop-color:#F8FF98"/>
   <stop offset="1" style="stop-opacity:1; stop-color:#FEFEFE"/>
  </linearGradient>
  <linearGradient id="id18" gradientUnits="objectBoundingBox" x1="50.0532%" y1="0%" x2="49.947%" y2="100.003%">
   <stop offset="0" style="stop-opacity:1; stop-color:#F8FF19"/>
   <stop offset="1" style="stop-opacity:1; stop-color:#7DEE30"/>
  </linearGradient>
 </defs>
 <g id="Camada_x0020_1">
  <metadata id="CorelCorpID_0Corel-Layer"/>
  <g style="clip-path:url(#id0)">
   <image x="2377" y="3292" width="1382" height="262" xlink:href="logo_sem_fundo_Images\logo_sem_fundo_ImgID1.png"/>
  </g>
  <g id="_2213241137600">
   <g>
    <path class="fil0" d="M877 582c69,0 125,56 125,125 0,69 -56,125 -125,125 -69,0 -125,-56 -125,-125 0,-69 56,-125 125,-125zm0 59c36,0 66,29 66,66 0,36 -29,66 -66,66 -36,0 -66,-29 -66,-66 0,-36 29,-66 66,-66z"/>
    <path class="fil1" d="M877 628c44,0 80,36 80,80 0,44 -36,80 -80,80 -44,0 -80,-36 -80,-80 0,-44 36,-80 80,-80zm0 38c23,0 42,19 42,42 0,23 -19,42 -42,42 -23,0 -42,-19 -42,-42 0,-23 19,-42 42,-42z"/>
    <path class="fil1" d="M188 655c29,0 53,24 53,53 0,29 -24,53 -53,53 -29,0 -53,-24 -53,-53 0,-29 24,-53 53,-53zm0 25c15,0 28,12 28,28 0,15 -12,28 -28,28 -15,0 -28,-12 -28,-28 0,-15 12,-28 28,-28z"/>
    <rect class="fil1" x="234" y="689" width="517" height="38"/>
    <rect class="fil2" x="371" y="1345" width="395" height="38"/>
    <path class="fil0" d="M259 1490c-69,0 -125,-56 -125,-125 0,-69 56,-125 125,-125 69,0 125,56 125,125 0,69 -56,125 -125,125zm0 -59c-36,0 -66,-29 -66,-66 0,-36 29,-66 66,-66 36,0 66,29 66,66 0,36 -29,66 -66,66z"/>
    <path class="fil1" d="M259 1445c-44,0 -80,-36 -80,-80 0,-44 36,-80 80,-80 44,0 80,36 80,80 0,44 -36,80 -80,80zm0 -38c-23,0 -42,-19 -42,-42 0,-23 19,-42 42,-42 23,0 42,19 42,42 0,23 -19,42 -42,42z"/>
    <g>
     <polygon class="fil1" points="933,909 538,909 538,944 933,944 "/>
     <polygon class="fil1" points="439,1013 538,909 538,944 439,1049 "/>
     <polygon class="fil1" points="439,1013 235,1013 235,1049 439,1049 "/>
     <path class="fil1" d="M190 977c29,0 53,24 53,53 0,29 -24,53 -53,53 -29,0 -53,-24 -53,-53 0,-29 24,-53 53,-53zm0 25c15,0 28,12 28,28 0,15 -12,28 -28,28 -15,0 -28,-12 -28,-28 0,-15 12,-28 28,-28z"/>
    </g>
    <g>
     <polygon class="fil1" points="933,1833 538,1833 538,1797 933,1797 "/>
     <polygon class="fil1" points="439,1728 538,1833 538,1797 439,1692 "/>
     <polygon class="fil1" points="439,1728 235,1728 235,1692 439,1692 "/>
     <path class="fil1" d="M190 1764c29,0 53,-24 53,-53 0,-29 -24,-53 -53,-53 -29,0 -53,24 -53,53 0,29 24,53 53,53zm0 -25c15,0 28,-12 28,-28 0,-15 -12,-28 -28,-28 -15,0 -28,12 -28,28 0,15 12,28 28,28z"/>
    </g>
    <path class="fil0" d="M877 1945c69,0 125,56 125,125 0,69 -56,125 -125,125 -69,0 -125,-56 -125,-125 0,-69 56,-125 125,-125zm0 59c36,0 66,29 66,66 0,36 -29,66 -66,66 -36,0 -66,-29 -66,-66 0,-36 29,-66 66,-66z"/>
    <path class="fil1" d="M877 1990c44,0 80,36 80,80 0,44 -36,80 -80,80 -44,0 -80,-36 -80,-80 0,-44 36,-80 80,-80zm0 38c23,0 42,19 42,42 0,23 -19,42 -42,42 -23,0 -42,-19 -42,-42 0,-23 19,-42 42,-42z"/>
    <path class="fil1" d="M188 2017c29,0 53,24 53,53 0,29 -24,53 -53,53 -29,0 -53,-24 -53,-53 0,-29 24,-53 53,-53zm0 25c15,0 28,12 28,28 0,15 -12,28 -28,28 -15,0 -28,-12 -28,-28 0,-15 12,-28 28,-28z"/>
    <rect class="fil1" x="234" y="2052" width="517" height="38"/>
   </g>
   <g>
    <path class="fil0" d="M2829 582c-69,0 -125,56 -125,125 0,69 56,125 125,125 69,0 125,-56 125,-125 0,-69 -56,-125 -125,-125zm0 59c-36,0 -66,29 -66,66 0,36 29,66 66,66 36,0 66,-29 66,-66 0,-36 -29,-66 -66,-66z"/>
    <path class="fil1" d="M2829 628c-44,0 -80,36 -80,80 0,44 36,80 80,80 44,0 80,-36 80,-80 0,-44 -36,-80 -80,-80zm0 38c-23,0 -42,19 -42,42 0,23 19,42 42,42 23,0 42,-19 42,-42 0,-23 -19,-42 -42,-42z"/>
    <path class="fil1" d="M3518 655c-29,0 -53,24 -53,53 0,29 24,53 53,53 29,0 53,-24 53,-53 0,-29 -24,-53 -53,-53zm0 25c-15,0 -28,12 -28,28 0,15 12,28 28,28 15,0 28,-12 28,-28 0,-15 -12,-28 -28,-28z"/>
    <rect class="fil1" x="2955" y="689" width="517" height="38"/>
    <rect class="fil2" x="2940" y="1345" width="395" height="38"/>
    <path class="fil0" d="M3447 1490c69,0 125,-56 125,-125 0,-69 -56,-125 -125,-125 -69,0 -125,56 -125,125 0,69 56,125 125,125zm0 -59c36,0 66,-29 66,-66 0,-36 -29,-66 -66,-66 -36,0 -66,29 -66,66 0,36 29,66 66,66z"/>
    <path class="fil1" d="M3447 1445c44,0 80,-36 80,-80 0,-44 -36,-80 -80,-80 -44,0 -80,36 -80,80 0,44 36,80 80,80zm0 -38c23,0 42,-19 42,-42 0,-23 -19,-42 -42,-42 -23,0 -42,19 -42,42 0,23 19,42 42,42z"/>
    <g>
     <polygon class="fil1" points="2773,909 3168,909 3168,944 2773,944 "/>
     <polygon class="fil1" points="3267,1013 3168,909 3168,944 3267,1049 "/>
     <polygon class="fil1" points="3267,1013 3471,1013 3471,1049 3267,1049 "/>
     <path class="fil1" d="M3516 977c-29,0 -53,24 -53,53 0,29 24,53 53,53 29,0 53,-24 53,-53 0,-29 -24,-53 -53,-53zm0 25c-15,0 -28,12 -28,28 0,15 12,28 28,28 15,0 28,-12 28,-28 0,-15 -12,-28 -28,-28z"/>
    </g>
    <g>
     <polygon class="fil1" points="2773,1833 3168,1833 3168,1797 2773,1797 "/>
     <polygon class="fil1" points="3267,1728 3168,1833 3168,1797 3267,1692 "/>
     <polygon class="fil1" points="3267,1728 3471,1728 3471,1692 3267,1692 "/>
     <path class="fil1" d="M3516 1764c-29,0 -53,-24 -53,-53 0,-29 24,-53 53,-53 29,0 53,24 53,53 0,29 -24,53 -53,53zm0 -25c-15,0 -28,-12 -28,-28 0,-15 12,-28 28,-28 15,0 28,12 28,28 0,15 -12,28 -28,28z"/>
    </g>
    <path class="fil0" d="M2829 1945c-69,0 -125,56 -125,125 0,69 56,125 125,125 69,0 125,-56 125,-125 0,-69 -56,-125 -125,-125zm0 59c-36,0 -66,29 -66,66 0,36 29,66 66,66 36,0 66,-29 66,-66 0,-36 -29,-66 -66,-66z"/>
    <path class="fil1" d="M2829 1990c-44,0 -80,36 -80,80 0,44 36,80 80,80 44,0 80,-36 80,-80 0,-44 -36,-80 -80,-80zm0 38c-23,0 -42,19 -42,42 0,23 19,42 42,42 23,0 42,-19 42,-42 0,-23 -19,-42 -42,-42z"/>
    <path class="fil1" d="M3518 2017c-29,0 -53,24 -53,53 0,29 24,53 53,53 29,0 53,-24 53,-53 0,-29 -24,-53 -53,-53zm0 25c-15,0 -28,12 -28,28 0,15 12,28 28,28 15,0 28,-12 28,-28 0,-15 -12,-28 -28,-28z"/>
    <rect class="fil1" x="2955" y="2052" width="517" height="38"/>
   </g>
   <g style="clip-path:url(#id1)">
    <image x="681" y="430" width="2297" height="1993" xlink:href="logo_sem_fundo_Images\logo_sem_fundo_ImgID2.png"/>
   </g>
   <g style="clip-path:url(#id2)">
    <image x="726" y="472" width="2203" height="1911" xlink:href="logo_sem_fundo_Images\logo_sem_fundo_ImgID3.png"/>
   </g>
   <path class="fil3" d="M1568 502c0,0 -21,-15 -82,-1 -61,14 -234,87 -373,199 -139,112 -307,343 -349,559 -42,216 -21,608 499,933 520,326 949,72 1016,51 67,-21 474,-256 596,-633 122,-377 -150,-762 -423,-970 0,0 -8,-4 -17,2 -10,6 -18,15 -7,23 11,8 464,313 420,847 -44,534 -774,760 -774,760 0,0 -527,129 -952,-238 -425,-367 -326,-703 -277,-892 49,-189 286,-490 722,-639z"/>
   <path class="fil4" d="M1796 301c0,0 -201,-259 -552,-240 0,0 -111,28 -102,154 0,0 -27,61 68,73 95,12 291,76 366,154 0,0 42,49 -7,60 -49,12 -420,87 -663,500 -243,413 -69,788 189,1028 259,240 649,367 1090,213 441,-155 614,-524 656,-675 42,-150 37,-580 -416,-899 0,0 -29,-58 28,-66 58,-8 383,-137 510,-396 0,0 9,-37 -16,-60 -25,-23 -276,-193 -647,-134 -371,59 -425,226 -506,289z"/>
   <path class="fil5" d="M1267 233c0,0 287,31 441,246 0,0 53,-14 72,-16 18,-2 -5,-22 -5,-22 0,0 -69,-233 -483,-307 0,0 -13,-3 -18,7 -5,10 -31,65 -27,80 4,15 20,12 20,12z"/>
   <g style="clip-path:url(#id3)">
    <g>
     <path id="1" class="fil6" d="M1230 186c0,0 -8,33 61,21 69,-12 281,13 399,95 118,83 -141,-122 -151,-132 -10,-9 -180,-87 -186,-86 -6,1 -90,3 -92,8 -2,5 -37,36 -35,40 2,5 4,53 4,53z"/>
    </g>
   </g>
   <path class="fil7" d="M1267 233c0,0 287,31 441,246 0,0 53,-14 72,-16 18,-2 -5,-22 -5,-22 0,0 -69,-233 -483,-307 0,0 -13,-3 -18,7 -5,10 -31,65 -27,80 4,15 20,12 20,12z"/>
   <path class="fil8" d="M1862 406c0,0 290,-557 997,-228 0,0 16,15 -2,20 -18,5 -461,-61 -921,191 0,0 -60,35 -67,44 -8,10 -10,-10 -10,-10l4 -18z"/>
   <g style="clip-path:url(#id4)">
    <g>
     <path id="1" class="fil9" d="M2698 103c0,0 -259,-6 -386,35 -127,42 -394,185 -435,215 -41,30 74,-114 79,-117 4,-3 103,-75 103,-75 0,0 136,-106 259,-114 124,-8 379,23 382,28 3,5 -1,27 -1,27z"/>
    </g>
   </g>
   <path class="fil7" d="M1862 406c0,0 290,-557 997,-228 0,0 16,15 -2,20 -18,5 -461,-61 -921,191 0,0 -60,35 -67,44 -8,10 -10,-10 -10,-10l4 -18z"/>
   <path class="fil10" d="M1942 478c0,0 141,31 240,55 99,25 271,17 441,-84 170,-102 225,-229 225,-229 0,0 -40,10 -47,9 -6,-1 -274,27 -401,63 -127,36 -189,43 -271,81 -82,38 -199,102 -187,105z"/>
   <g style="clip-path:url(#id5)">
    <g>
    </g>
    <g style="clip-path:url(#id6)">
     <image x="1975" y="187" width="791" height="318" xlink:href="logo_sem_fundo_Images\logo_sem_fundo_ImgID4.png"/>
    </g>
    <g style="clip-path:url(#id7)">
    </g>
    <g style="clip-path:url(#id8)">
     <image x="1924" y="194" width="954" height="384" xlink:href="logo_sem_fundo_Images\logo_sem_fundo_ImgID5.png"/>
    </g>
    <g style="clip-path:url(#id9)">
     <path class="fil11" d="M1943 486c0,0 186,-100 300,-126 114,-26 193,-61 210,-65 17,-4 136,-27 144,-29 8,-2 100,-12 148,-35 48,-24 -327,36 -444,63 -117,27 -263,70 -287,94 -24,24 -105,65 -96,84 9,20 24,13 24,13z"/>
    </g>
   </g>
   <path class="fil7" d="M1942 478c0,0 141,31 240,55 99,25 271,17 441,-84 170,-102 225,-229 225,-229 0,0 -40,10 -47,9 -6,-1 -274,27 -401,63 -127,36 -189,43 -271,81 -82,38 -199,102 -187,105z"/>
   <path class="fil12" d="M1781 554c-61,21 -327,189 -432,298 -115,120 -206,210 -229,247 -23,37 -55,74 -97,106 -42,32 -102,125 -102,125 0,0 -60,139 18,319 76,173 166,249 175,263l0 -439c-51,-16 -87,-64 -87,-120 0,-70 56,-126 126,-126 70,0 126,56 126,126 0,56 -37,103 -87,120l0 517c48,40 120,91 215,135l0 -451c-51,-16 -87,-64 -87,-120 0,-56 37,-103 87,-120l0 -340c-18,-361 310,-497 349,-520 13,-7 20,-15 24,-21zm-296 1604c82,31 177,56 286,69l0 -495c-51,-16 -87,-64 -87,-120 0,-56 37,-103 87,-120l0 -842c-327,123 -286,445 -286,445l0 340c51,16 87,64 87,120 0,56 -37,103 -87,120l0 484zm364 73c105,0 207,-23 303,-63l0 -497c-51,-16 -87,-64 -87,-120 0,-56 37,-103 87,-120l0 -202c-52,-15 -91,-64 -91,-121 0,-59 40,-108 94,-122 -38,-251 -229,-326 -306,-346l0 850c51,16 87,64 87,120 0,56 -37,103 -87,120l0 500zm380 -98c85,-44 162,-98 230,-157l0 -519c-51,-16 -87,-64 -87,-120 0,-70 56,-126 126,-126 70,0 126,56 126,126 0,56 -37,103 -87,120l0 445c90,-94 151,-192 171,-268 60,-226 49,-404 -72,-575 -114,-163 -335,-498 -773,-508 17,40 103,69 103,69 233,118 251,319 252,368 54,14 95,63 95,122 0,55 -35,101 -84,119l0 204c51,16 87,64 87,120 0,56 -37,103 -87,120l0 461zm269 -859c35,0 64,28 64,64 0,35 -28,64 -64,64 -35,0 -64,-28 -64,-64 0,-35 28,-64 64,-64zm-311 -228c35,0 64,28 64,64 0,35 -28,64 -64,64 -35,0 -64,-28 -64,-64 0,-35 28,-64 64,-64zm3 442c35,0 64,28 64,64 0,35 -28,64 -64,64 -35,0 -64,-28 -64,-64 0,-35 28,-64 64,-64zm-380 60c35,0 64,28 64,64 0,35 -28,64 -64,64 -35,0 -64,-28 -64,-64 0,-35 28,-64 64,-64zm-364 -58c35,0 64,28 64,64 0,35 -28,64 -64,64 -35,0 -64,-28 -64,-64 0,-35 28,-64 64,-64zm-292 -201c35,0 64,28 64,64 0,35 -28,64 -64,64 -35,0 -64,-28 -64,-64 0,-35 28,-64 64,-64z"/>
   <g style="clip-path:url(#id10)">
    <g>
    </g>
    <g style="clip-path:url(#id11)">
     <image x="918" y="375" width="1811" height="1926" xlink:href="logo_sem_fundo_Images\logo_sem_fundo_ImgID6.png"/>
    </g>
    <g style="clip-path:url(#id12)">
    </g>
    <g style="clip-path:url(#id13)">
     <image x="1170" y="612" width="1608" height="1656" xlink:href="logo_sem_fundo_Images\logo_sem_fundo_ImgID7.png"/>
    </g>
    <g style="clip-path:url(#id14)">
    </g>
    <g style="clip-path:url(#id15)">
     <image x="1175" y="649" width="1615" height="1634" xlink:href="logo_sem_fundo_Images\logo_sem_fundo_ImgID8.png"/>
    </g>
    <g style="clip-path:url(#id16)">
    </g>
   </g>
   <path class="fil7" d="M1781 554c-61,21 -327,189 -432,298 -115,120 -206,210 -229,247 -23,37 -55,74 -97,106 -42,32 -102,125 -102,125 0,0 -60,139 18,319 76,173 166,249 175,263l0 -439c-51,-16 -87,-64 -87,-120 0,-70 56,-126 126,-126 70,0 126,56 126,126 0,56 -37,103 -87,120l0 517c48,40 120,91 215,135l0 -451c-51,-16 -87,-64 -87,-120 0,-56 37,-103 87,-120l0 -340c-18,-361 310,-497 349,-520 13,-7 20,-15 24,-21zm-296 1604c82,31 177,56 286,69l0 -495c-51,-16 -87,-64 -87,-120 0,-56 37,-103 87,-120l0 -842c-327,123 -286,445 -286,445l0 340c51,16 87,64 87,120 0,56 -37,103 -87,120l0 484zm364 73c105,0 207,-23 303,-63l0 -497c-51,-16 -87,-64 -87,-120 0,-56 37,-103 87,-120l0 -202c-52,-15 -91,-64 -91,-121 0,-59 40,-108 94,-122 -38,-251 -229,-326 -306,-346l0 850c51,16 87,64 87,120 0,56 -37,103 -87,120l0 500zm380 -98c85,-44 162,-98 230,-157l0 -519c-51,-16 -87,-64 -87,-120 0,-70 56,-126 126,-126 70,0 126,56 126,126 0,56 -37,103 -87,120l0 445c90,-94 151,-192 171,-268 60,-226 49,-404 -72,-575 -114,-163 -335,-498 -773,-508 17,40 103,69 103,69 233,118 251,319 252,368 54,14 95,63 95,122 0,55 -35,101 -84,119l0 204c51,16 87,64 87,120 0,56 -37,103 -87,120l0 461zm269 -859c35,0 64,28 64,64 0,35 -28,64 -64,64 -35,0 -64,-28 -64,-64 0,-35 28,-64 64,-64zm-311 -228c35,0 64,28 64,64 0,35 -28,64 -64,64 -35,0 -64,-28 -64,-64 0,-35 28,-64 64,-64zm3 442c35,0 64,28 64,64 0,35 -28,64 -64,64 -35,0 -64,-28 -64,-64 0,-35 28,-64 64,-64zm-380 60c35,0 64,28 64,64 0,35 -28,64 -64,64 -35,0 -64,-28 -64,-64 0,-35 28,-64 64,-64zm-364 -58c35,0 64,28 64,64 0,35 -28,64 -64,64 -35,0 -64,-28 -64,-64 0,-35 28,-64 64,-64zm-292 -201c35,0 64,28 64,64 0,35 -28,64 -64,64 -35,0 -64,-28 -64,-64 0,-35 28,-64 64,-64z"/>
   <path class="fil13" d="M1784 555c0,0 -99,-28 -326,70 -226,98 -293,234 -365,306 -72,72 -188,264 -194,387 -6,122 2,208 25,281 23,73 -12,-158 16,-237 28,-79 55,-106 83,-121 28,-15 88,-85 150,-161 62,-75 296,-311 333,-327 37,-16 48,-42 69,-60 21,-18 88,-68 116,-80 28,-12 87,-44 90,-60l3 1z"/>
  </g>
  <path class="fil14" d="M107 2881l0 -150 102 0c62,0 87,32 87,74 0,45 -25,76 -87,76l-102 0zm0 273l0 -186 119 0c100,0 164,-67 164,-160 0,-92 -64,-166 -164,-166l-226 0 0 511 107 0z"/>
  <polygon id="1" class="fil14" points="799,3154 799,3063 515,3063 515,2931 765,2931 765,2841 515,2841 515,2732 787,2732 787,2642 411,2642 411,3154 "/>
  <path id="2" class="fil14" d="M1220 3164c0,50 -23,75 -52,75 -32,0 -55,-25 -55,-83 124,-19 192,-129 192,-252 0,-176 -87,-280 -244,-280 -157,0 -246,104 -246,277 0,156 71,243 199,260l0 16c0,91 61,154 146,154 90,0 156,-71 156,-169l-94 0zm-160 -85c-89,0 -140,-54 -140,-175 0,-121 50,-185 140,-185 89,0 139,64 139,185 0,121 -62,175 -139,175z"/>
  <path id="3" class="fil14" d="M1640 2983c0,67 -34,99 -102,99 -58,0 -92,-40 -92,-103l0 -337 -109 0 0 347c0,123 78,182 202,182 134,0 210,-64 210,-188l0 -341 -109 0 0 341z"/>
  <polygon id="4" class="fil14" points="1896,3154 1896,2642 1789,2642 1789,3154 "/>
  <polygon class="fil15" points="2230,3153 2230,2731 2385,2731 2385,2642 1969,2642 1969,2731 2123,2731 2123,3153 "/>
  <polygon id="1" class="fil15" points="2798,3153 2798,3063 2514,3063 2514,2931 2764,2931 2764,2841 2514,2841 2514,2731 2786,2731 2786,2642 2410,2642 2410,3153 "/>
  <path id="2" class="fil15" d="M3163 2978c-15,64 -53,100 -116,100 -83,0 -125,-67 -125,-180 0,-112 42,-180 130,-180 51,0 96,35 111,92l107 0c-10,-103 -91,-185 -219,-185 -146,0 -238,105 -238,279 0,176 102,267 236,267 119,0 199,-77 220,-193l-107 0z"/>
  <polygon id="3" class="fil15" points="3706,3153 3706,2642 3598,2642 3598,2835 3399,2835 3399,2642 3292,2642 3292,3153 3399,3153 3399,2924 3598,2924 3598,3153 "/>
  <path class="fil16" d="M2498 3485c-30,0 -47,-18 -47,-59 0,-40 17,-62 47,-62 30,0 46,21 46,62 0,40 -21,59 -46,59zm0 31c53,0 82,-30 82,-89 0,-59 -29,-94 -82,-94 -53,0 -82,35 -82,93 0,58 30,90 82,90z"/>
  <polygon id="1" class="fil16" points="2803,3510 2803,3338 2770,3338 2770,3449 2702,3338 2664,3338 2664,3510 2697,3510 2697,3395 2770,3510 "/>
  <polygon id="2" class="fil16" points="2951,3443 2951,3417 2888,3417 2888,3443 "/>
  <polygon id="3" class="fil16" points="3157,3510 3157,3478 3072,3478 3072,3338 3036,3338 3036,3510 "/>
  <polygon id="4" class="fil16" points="3275,3510 3275,3338 3239,3338 3239,3510 "/>
  <polygon id="5" class="fil16" points="3501,3510 3501,3338 3467,3338 3467,3449 3399,3338 3361,3338 3361,3510 3394,3510 3394,3395 3468,3510 "/>
  <polygon id="6" class="fil16" points="3717,3510 3717,3479 3622,3479 3622,3435 3706,3435 3706,3405 3622,3405 3622,3368 3713,3368 3713,3338 3587,3338 3587,3510 "/>
  <path id="7" class="fil17 str0" d="M2498 3485c-30,0 -47,-18 -47,-59 0,-40 17,-62 47,-62 30,0 46,21 46,62 0,40 -21,59 -46,59zm0 31c53,0 82,-30 82,-89 0,-59 -29,-94 -82,-94 -53,0 -82,35 -82,93 0,58 30,90 82,90z"/>
  <polygon id="8" class="fil17 str0" points="2803,3510 2803,3338 2770,3338 2770,3449 2702,3338 2664,3338 2664,3510 2697,3510 2697,3395 2770,3510 "/>
  <polygon id="9" class="fil17 str0" points="2951,3443 2951,3417 2888,3417 2888,3443 "/>
  <polygon id="10" class="fil17 str0" points="3157,3510 3157,3478 3072,3478 3072,3338 3036,3338 3036,3510 "/>
  <polygon id="11" class="fil17 str0" points="3275,3510 3275,3338 3239,3338 3239,3510 "/>
  <polygon id="12" class="fil17 str0" points="3501,3510 3501,3338 3467,3338 3467,3449 3399,3338 3361,3338 3361,3510 3394,3510 3394,3395 3468,3510 "/>
  <polygon id="13" class="fil17 str0" points="3717,3510 3717,3479 3622,3479 3622,3435 3706,3435 3706,3405 3622,3405 3622,3368 3713,3368 3713,3338 3587,3338 3587,3510 "/>
 </g>
</svg>
